<?xml version="1.0" encoding="UTF-8"?>
<!DOCTYPE svg PUBLIC "-//W3C//DTD SVG 1.1//EN" "http://www.w3.org/Graphics/SVG/1.1/DTD/svg11.dtd">
<svg xmlns="http://www.w3.org/2000/svg" version="1.1" width="70px" height="61px" style="shape-rendering:geometricPrecision; text-rendering:geometricPrecision; image-rendering:optimizeQuality; fill-rule:evenodd; clip-rule:evenodd" xmlns:xlink="http://www.w3.org/1999/xlink">
<g><path style="opacity:0.924" fill="#e5e0da" d="M 49.5,-0.5 C 52.8333,-0.5 56.1667,-0.5 59.5,-0.5C 60.072,0.973316 60.9054,2.30665 62,3.5C 62.4998,12.1603 62.6664,20.8269 62.5,29.5C 64.8333,29.5 67.1667,29.5 69.5,29.5C 69.5,30.8333 69.5,32.1667 69.5,33.5C 68.6862,35.631 68.1862,37.9644 68,40.5C 63.0518,44.5821 61.0518,49.9155 62,56.5C 59.5525,58.8076 56.7192,60.1409 53.5,60.5C 51.5,60.5 49.5,60.5 47.5,60.5C 46.5442,59.3406 45.5442,58.1739 44.5,57C 45.3822,53.5592 45.7155,50.0592 45.5,46.5C 40.1563,46.666 34.8229,46.4994 29.5,46C 28.3651,41.2523 28.1985,36.419 29,31.5C 33.4118,24.964 37.0785,17.964 40,10.5C 43.0316,6.64096 46.1983,2.97429 49.5,-0.5 Z M 48.5,6.5 C 50.1667,6.5 51.8333,6.5 53.5,6.5C 53.5,16.5 53.5,26.5 53.5,36.5C 55.8333,36.5 58.1667,36.5 60.5,36.5C 60.5,38.1667 60.5,39.8333 60.5,41.5C 58.8333,41.5 57.1667,41.5 55.5,41.5C 55.5,46.1667 55.5,50.8333 55.5,55.5C 53.7376,55.3573 52.0709,55.6906 50.5,56.5C 49.8055,52.2873 49.1388,48.1206 48.5,44C 43.6278,42.6115 38.6278,42.1115 33.5,42.5C 33.3359,39.8127 33.5026,37.146 34,34.5C 35.9272,31.0519 37.2606,27.3852 38,23.5C 41.511,17.8054 45.011,12.1387 48.5,6.5 Z M 45.5,29.5 C 46.7125,30.4971 46.5458,31.4971 45,32.5C 44.5304,31.4232 44.6971,30.4232 45.5,29.5 Z"/></g>
<g><path style="opacity:0.926" fill="#e5e0da" d="M -0.5,26.5 C -0.5,23.1667 -0.5,19.8333 -0.5,16.5C 3.02912,12.4489 6.02912,7.94892 8.5,3C 12.6996,1.63256 17.0329,1.13256 21.5,1.5C 21.6666,18.5033 21.4999,35.5033 21,52.5C 19.7485,54.0009 18.7485,55.6675 18,57.5C 14.9015,58.3024 11.7349,58.969 8.5,59.5C 7.55805,59.3918 6.72472,59.0585 6,58.5C 4.66191,48.2163 4.16191,37.8829 4.5,27.5C 2.70848,27.634 1.04181,27.3007 -0.5,26.5 Z M 10.5,8.5 C 11.5,8.5 12.5,8.5 13.5,8.5C 13.5,23.8333 13.5,39.1667 13.5,54.5C 11.8333,54.5 10.1667,54.5 8.5,54.5C 8.67233,44.143 8.339,33.8097 7.5,23.5C 4.75687,23.9228 3.42354,22.7561 3.5,20C 5.20449,15.793 7.53782,11.9596 10.5,8.5 Z"/></g>
<g><path style="opacity:0.94" fill="#e5e0da" d="M 47.5,12.5 C 48.9311,12.8807 49.7645,13.8807 50,15.5C 50.4771,23.1781 50.3105,30.8448 49.5,38.5C 45.1539,38.6657 40.8206,38.499 36.5,38C 35.9781,37.4387 35.6448,36.772 35.5,36C 39.1375,27.89 43.1375,20.0567 47.5,12.5 Z M 45.5,29.5 C 44.6971,30.4232 44.5304,31.4232 45,32.5C 46.5458,31.4971 46.7125,30.4971 45.5,29.5 Z"/></g>
</svg>
